<svg height="auto" viewBox="0 0 2000 1000" xmlns="http://www.w3.org/2000/svg"><path d="M0 5.886 23 9.29l23 3.817 23 14.212 23 16.55 23 12.395 23-9.49 23 30.323 23-24.262 23 3.784 23 11.085 23 22.735 23 28.83 23-11.11 23-11.562 23 15.015 23 5.388 23 27.986 23-23.58 23 103.971 23-77.257 23 4.126 23 71.956 23-11.16 23-11.453 23 33.889 23 14.11 23-67.125 23 62.353 23-4.394 23 100.12 23-100.902 23-29.78 23 27.923 23 91.154 23 60.703 23-11.137 23-141.75 23 11.067 23 120.525 23 91.476 23-67.49 23 64.976 23-198.762 23 222.023 23-183.419 23 195.93 23-23.195 23-143.864 23 207.757 23-114.34 23 79.585 23-39.777 23-43.131 23 24.084 23-24.86 23 38.837 23-102.82 23 72.363 23 218.4 23-113.718 23-143.018 23-1.456 23 241.9 23-116.63 23-58.83 23 276.023 23-52.977 23-179.912 23 35.126 23-86.568 23 211.626 23-164.211 23 286.373 23-172.176 23 41.113 23 130.47 23 35.759 23-92.343 23-163.706 23 163.402 23 146.314 23-332.91 23 366.979 23-20.074 23-10.733 23 107.817 22 24.243H0Z" fill="#444cf71a"/><path d="M0 5.886 23 9.29l23 3.817 23 14.212 23 16.55 23 12.395 23-9.49 23 30.323 23-24.262 23 3.784 23 11.085 23 22.735 23 28.83 23-11.11 23-11.562 23 15.015 23 5.388 23 27.986 23-23.58 23 103.971 23-77.257 23 4.126 23 71.956 23-11.16 23-11.453 23 33.889 23 14.11 23-67.125 23 62.353 23-4.394 23 100.12 23-100.902 23-29.78 23 27.923 23 91.154 23 60.703 23-11.137 23-141.75 23 11.067 23 120.525 23 91.476 23-67.49 23 64.976 23-198.762 23 222.023 23-183.419 23 195.93 23-23.195 23-143.864 23 207.757 23-114.34 23 79.585 23-39.777 23-43.131 23 24.084 23-24.86 23 38.837 23-102.82 23 72.363 23 218.4 23-113.718 23-143.018 23-1.456 23 241.9 23-116.63 23-58.83 23 276.023 23-52.977 23-179.912 23 35.126 23-86.568 23 211.626 23-164.211 23 286.373 23-172.176 23 41.113 23 130.47 23 35.759 23-92.343 23-163.706 23 163.402 23 146.314 23-332.91 23 366.979 23-20.074 23-10.733 23 107.817" fill="none" stroke="#444cf7" stroke-width="10"/></svg>