<svg height="auto" viewBox="0 0 2000 1000" xmlns="http://www.w3.org/2000/svg"><path d="M0 988.698c40-15.345 120-57.708 200-76.725 80-19.018 120-5.685 200-18.362s120 1.465 200-45.022c80-46.488 120-133.913 200-187.415 80-53.501 120-29.777 200-80.094 80-50.317 120-119.84 200-171.49 80-51.65 120-48.144 200-86.759s120-143.688 200-106.316c80 37.372 120 251.908 200 293.175 80 41.267 160-69.474 200-86.842V1000H0Z" fill="#444cf71a"/><path d="M0 988.698c40-15.345 120-57.708 200-76.725 80-19.018 120-5.685 200-18.362s120 1.465 200-45.022c80-46.488 120-133.913 200-187.415 80-53.501 120-29.777 200-80.094 80-50.317 120-119.84 200-171.49 80-51.65 120-48.144 200-86.759s120-143.688 200-106.316c80 37.372 120 251.908 200 293.175 80 41.267 160-69.474 200-86.842" fill="none" stroke="#444cf7" stroke-width="4"/></svg>