<svg height="auto" viewBox="0 0 2000 1000" xmlns="http://www.w3.org/2000/svg"><path d="M0 991.833c21-3.709 63 .422 105-18.541s63-62.047 105-76.276c42-14.23 63 6.65 105 5.13 42-1.518 63-3.982 105-12.724 42-8.743 63 4.273 105-30.988 42-35.26 63-110.994 105-145.318 42-34.325 63-1.483 105-26.304 42-24.821 63-101.074 105-97.803 42 3.272 63 106.845 105 114.16 42 7.313 63-48.148 105-77.59s63-64.26 105-69.62c42-5.359 63 86.792 105 42.825s63-244.776 105-262.66c42-17.883 63 128.835 105 173.243 42 44.408 63 35.849 105 48.799 42 12.95 63 86.67 105 15.951 42-70.718 63-347.054 105-369.544 42-22.49 63 251.666 105 257.096 42 5.43 84-183.957 105-229.946l5 768.277H0Z" fill="#444cf71a"/><path d="M0 991.833c21-3.709 63 .422 105-18.541s63-62.047 105-76.276c42-14.23 63 6.65 105 5.13 42-1.518 63-3.982 105-12.724 42-8.743 63 4.273 105-30.988 42-35.26 63-110.994 105-145.318 42-34.325 63-1.483 105-26.304 42-24.821 63-101.074 105-97.803 42 3.272 63 106.845 105 114.16 42 7.313 63-48.148 105-77.59s63-64.26 105-69.62c42-5.359 63 86.792 105 42.825s63-244.776 105-262.66c42-17.883 63 128.835 105 173.243 42 44.408 63 35.849 105 48.799 42 12.95 63 86.67 105 15.951 42-70.718 63-347.054 105-369.544 42-22.49 63 251.666 105 257.096 42 5.43 84-183.957 105-229.946" fill="none" stroke="#444cf7" stroke-width="4"/><g fill="#444cf7"><circle cy="991.833" r="8"/><circle cx="105" cy="973.292" r="8"/><circle cx="210" cy="897.016" r="8"/><circle cx="315" cy="902.146" r="8"/><circle cx="420" cy="889.422" r="8"/><circle cx="525" cy="858.434" r="8"/><circle cx="630" cy="713.116" r="8"/><circle cx="735" cy="686.812" r="8"/><circle cx="840" cy="589.009" r="8"/><circle cx="945" cy="703.168" r="8"/><circle cx="1050" cy="625.579" r="8"/><circle cx="1155" cy="555.96" r="8"/><circle cx="1260" cy="598.784" r="8"/><circle cx="1365" cy="336.125" r="8"/><circle cx="1470" cy="509.367" r="8"/><circle cx="1575" cy="558.166" r="8"/><circle cx="1680" cy="574.117" r="8"/><circle cx="1785" cy="204.573" r="8"/><circle cx="1890" cy="461.669" r="8"/><circle cx="1995" cy="231.723" r="8"/></g></svg>