<svg height="auto" viewBox="0 0 2000 1000" xmlns="http://www.w3.org/2000/svg"><path d="M0 618.502c.54 1.821 25.92 100.816 27 91.06 1.08-9.754 25.92-569.899 27-578.82 1.08-8.92 25.92 122.06 27 132.8 1.08 10.74 25.92 401.02 27 404.184 1.08 3.164 25.92-245.115 27-246.015 1.08-.9 25.92 198.04 27 201.034 1.08 2.994 25.92-51.408 27-51.362 1.08.047 25.92 49.835 27 53.68 1.08 3.845 25.92 142.829 27 138.557 1.08-4.272 25.92-350.33 27-352.158 1.08-1.828 25.92 265.72 27 260.764 1.08-4.957 25.92-508.485 27-508.599 1.08-.113 25.92 503.061 27 502.929 1.08-.133 25.92-505.72 27-509.56 1.08-3.842 25.92 317.261 27 317.505 1.08.243 25.92-310.103 27-305.335 1.08 4.77 25.92 536.017 27 543.768 1.08 7.75 25.92-151.064 27-156.235 1.08-5.17 25.92-97.51 27-102.314 1.08-4.805 25.92-139.22 27-137.927 1.08 1.294 25.92 204.317 27 202.613 1.08-1.704 25.92-281.73 27-287.801 1.08-6.07 25.92-15.123 27-15.722 1.08-.599 25.92-18.103 27-14.228 1.08 3.875 25.92 203.102 27 207.988 1.08 4.886 25.92 33.696 27 36.316 1.08 2.62 25.92 94.317 27 94.7 1.08.382 25.92-75.529 27-75.566 1.08-.037 25.92 75.553 27 73.713 1.08-1.84 25.92-167.845 27-165.7 1.08 2.143 25.92 273.631 27 272.897 1.08-.735 25.92-311.953 27-309.618 1.08 2.335 25.92 419.284 27 426.377 1.08 7.094 25.92-68.731 27-71.726 1.08-2.994 25.92-66.634 27-77.979 1.08-11.344 25.92-480.415 27-489.232 1.08-8.818 25.92 41.803 27 48.355 1.08 6.553 25.92 274.948 27 279.272 1.08 4.325 25.92-66.353 27-63.04 1.08 3.311 25.92 222.46 27 228.632 1.08 6.172 25.92 83.155 27 79.97 1.08-3.185 25.92-238.828 27-239.215 1.08-.386 25.92 216.592 27 219.902 1.08 3.309 25.92-52.337 27-54.443 1.08-2.107 25.92-43.122 27-50.884 1.08-7.761 25.92-330.395 27-337.188 1.08-6.793 25.92-13.687 27-2.467 1.08 11.22 25.92 561.771 27 563.49 1.08 1.72 25.92-470.134 27-477.533 1.08-7.398 25.92 110.527 27 107.614 1.08-2.913 25.92-256.8 27-253.263 1.08 3.537 25.92 420.227 27 430.136 1.08 9.908 25.92 72.106 27 65.303 1.08-6.803 25.92-400.2 27-405.452 1.08-5.253 25.92 141.16 27 142.81 1.08 1.65 25.92-65.248 27-60.289 1.08 4.96 25.92 306.17 27 308.244 1.08 2.074 25.92-199.21 27-204.563 1.08-5.353 25.92-68.2 27-63.098 1.08 5.103 25.92 310.289 27 318.204 1.08 7.915 25.92 77.662 27 77.565 1.08-.096 25.92-77.961 27-82.372 1.08-4.41 25.92-128.841 27-138.171 1.08-9.331 25.92-331.926 27-328.354 1.08 3.572 25.92 497.663 27 506.948 1.08 9.285 25.92-33.173 27-42.703 1.08-9.53 25.92-421.877 27-433.79 1.08-11.915 25.92-162.453 27-161.907 1.08.546 25.92 184.818 27 189.21 1.08 4.393 25.92 27.207 27 30.395 1.08 3.189 25.92 125.568 27 129.041 1.08 3.473 25.92 44.846 27 44.603 1.08-.242 25.92-53.78 27-56.739 1.08-2.958 25.92-92.549 27-91.17 1.08 1.379 26.46 156.901 27 160.104L2000 1000H0Z" fill="#444cf71a"/><path d="M0 618.502c.54 1.821 25.92 100.816 27 91.06 1.08-9.754 25.92-569.899 27-578.82 1.08-8.92 25.92 122.06 27 132.8 1.08 10.74 25.92 401.02 27 404.184 1.08 3.164 25.92-245.115 27-246.015 1.08-.9 25.92 198.04 27 201.034 1.08 2.994 25.92-51.408 27-51.362 1.08.047 25.92 49.835 27 53.68 1.08 3.845 25.92 142.829 27 138.557 1.08-4.272 25.92-350.33 27-352.158 1.08-1.828 25.92 265.72 27 260.764 1.08-4.957 25.92-508.485 27-508.599 1.08-.113 25.92 503.061 27 502.929 1.08-.133 25.92-505.72 27-509.56 1.08-3.842 25.92 317.261 27 317.505 1.08.243 25.92-310.103 27-305.335 1.08 4.77 25.92 536.017 27 543.768 1.08 7.75 25.92-151.064 27-156.235 1.08-5.17 25.92-97.51 27-102.314 1.08-4.805 25.92-139.22 27-137.927 1.08 1.294 25.92 204.317 27 202.613 1.08-1.704 25.92-281.73 27-287.801 1.08-6.07 25.92-15.123 27-15.722 1.08-.599 25.92-18.103 27-14.228 1.08 3.875 25.92 203.102 27 207.988 1.08 4.886 25.92 33.696 27 36.316 1.08 2.62 25.92 94.317 27 94.7 1.08.382 25.92-75.529 27-75.566 1.08-.037 25.92 75.553 27 73.713 1.08-1.84 25.92-167.845 27-165.7 1.08 2.143 25.92 273.631 27 272.897 1.08-.735 25.92-311.953 27-309.618 1.08 2.335 25.92 419.284 27 426.377 1.08 7.094 25.92-68.731 27-71.726 1.08-2.994 25.92-66.634 27-77.979 1.08-11.344 25.92-480.415 27-489.232 1.08-8.818 25.92 41.803 27 48.355 1.08 6.553 25.92 274.948 27 279.272 1.08 4.325 25.92-66.353 27-63.04 1.08 3.311 25.92 222.46 27 228.632 1.08 6.172 25.92 83.155 27 79.97 1.08-3.185 25.92-238.828 27-239.215 1.08-.386 25.92 216.592 27 219.902 1.08 3.309 25.92-52.337 27-54.443 1.08-2.107 25.92-43.122 27-50.884 1.08-7.761 25.92-330.395 27-337.188 1.08-6.793 25.92-13.687 27-2.467 1.08 11.22 25.92 561.771 27 563.49 1.08 1.72 25.92-470.134 27-477.533 1.08-7.398 25.92 110.527 27 107.614 1.08-2.913 25.92-256.8 27-253.263 1.08 3.537 25.92 420.227 27 430.136 1.08 9.908 25.92 72.106 27 65.303 1.08-6.803 25.92-400.2 27-405.452 1.08-5.253 25.92 141.16 27 142.81 1.08 1.65 25.92-65.248 27-60.289 1.08 4.96 25.92 306.17 27 308.244 1.08 2.074 25.92-199.21 27-204.563 1.08-5.353 25.92-68.2 27-63.098 1.08 5.103 25.92 310.289 27 318.204 1.08 7.915 25.92 77.662 27 77.565 1.08-.096 25.92-77.961 27-82.372 1.08-4.41 25.92-128.841 27-138.171 1.08-9.331 25.92-331.926 27-328.354 1.08 3.572 25.92 497.663 27 506.948 1.08 9.285 25.92-33.173 27-42.703 1.08-9.53 25.92-421.877 27-433.79 1.08-11.915 25.92-162.453 27-161.907 1.08.546 25.92 184.818 27 189.21 1.08 4.393 25.92 27.207 27 30.395 1.08 3.189 25.92 125.568 27 129.041 1.08 3.473 25.92 44.846 27 44.603 1.08-.242 25.92-53.78 27-56.739 1.08-2.958 25.92-92.549 27-91.17 1.08 1.379 26.46 156.901 27 160.104" fill="none" stroke="#444cf7" stroke-width="7"/></svg>