<svg height="auto" viewBox="0 0 2000 1000" xmlns="http://www.w3.org/2000/svg"><path d="M0 1000h80V287.98q0-4-4-4H4q-4 0-4 4ZM100 1000h80V339.46q0-4-4-4h-72q-4 0-4 4ZM200 1000h80V573.538q0-4-4-4h-72q-4 0-4 4ZM300 1000h80V319.9q0-4-4-4h-72q-4 0-4 4ZM400 1000h80V191.232q0-4-4-4h-72q-4 0-4 4ZM500 1000h80V341.617q0-4-4-4h-72q-4 0-4 4ZM600 1000h80V502.964q0-4-4-4h-72q-4 0-4 4ZM700 1000h80V363.067q0-4-4-4h-72q-4 0-4 4ZM800 1000h80V599.006q0-4-4-4h-72q-4 0-4 4ZM900 1000h80V227.717q0-4-4-4h-72q-4 0-4 4ZM1000 1000h80V197.515q0-4-4-4h-72q-4 0-4 4ZM1100 1000h80V528.417q0-4-4-4h-72q-4 0-4 4ZM1200 1000h80V645.72q0-4-4-4h-72q-4 0-4 4ZM1300 1000h80V257.163q0-4-4-4h-72q-4 0-4 4ZM1400 1000h80V593.435q0-4-4-4h-72q-4 0-4 4ZM1500 1000h80V597.543q0-4-4-4h-72q-4 0-4 4ZM1600 1000h80V796.712q0-4-4-4h-72q-4 0-4 4ZM1700 1000h80V143.183q0-4-4-4h-72q-4 0-4 4ZM1800 1000h80V140.627q0-4-4-4h-72q-4 0-4 4ZM1900 1000h80V122.551q0-4-4-4h-72q-4 0-4 4Z" fill="#444cf7"/></svg>