<svg height="auto" viewBox="0 0 2000 1000" xmlns="http://www.w3.org/2000/svg"><path d="M0 1000h80V23.934q0-4-4-4H4q-4 0-4 4ZM100 1000h80V49.895q0-4-4-4h-72q-4 0-4 4ZM200 1000h80V62.407q0-4-4-4h-72q-4 0-4 4ZM300 1000h80V145.852q0-4-4-4h-72q-4 0-4 4ZM400 1000h80V115.212q0-4-4-4h-72q-4 0-4 4ZM500 1000h80V172.213q0-4-4-4h-72q-4 0-4 4ZM600 1000h80V169.426q0-4-4-4h-72q-4 0-4 4ZM700 1000h80V339.085q0-4-4-4h-72q-4 0-4 4ZM800 1000h80V374.748q0-4-4-4h-72q-4 0-4 4ZM900 1000h80V414.59q0-4-4-4h-72q-4 0-4 4ZM1000 1000h80V274.577q0-4-4-4h-72q-4 0-4 4ZM1100 1000h80V316.763q0-4-4-4h-72q-4 0-4 4ZM1200 1000h80V449.952q0-4-4-4h-72q-4 0-4 4ZM1300 1000h80V376.154q0-4-4-4h-72q-4 0-4 4ZM1400 1000h80V420.398q0-4-4-4h-72q-4 0-4 4ZM1500 1000h80V409.092q0-4-4-4h-72q-4 0-4 4ZM1600 1000h80V551.885q0-4-4-4h-72q-4 0-4 4ZM1700 1000h80V592.668q0-4-4-4h-72q-4 0-4 4ZM1800 1000h80V702.46q0-4-4-4h-72q-4 0-4 4ZM1900 1000h80V740.492q0-4-4-4h-72q-4 0-4 4Z" fill="#444cf7"/></svg>