<svg width="48" height="48" viewBox="0 0 48 48" fill="none" xmlns="http://www.w3.org/2000/svg">
<g filter="url(#filter0_d_130_4263)">
<rect x="4" width="40" height="40" rx="20" fill="#F49C89"/>
<path fill-rule="evenodd" clip-rule="evenodd" d="M15.2625 27.0568C14.8702 26.9408 14.5123 26.7343 14.219 26.4549C13.9256 26.1754 13.7054 25.8312 13.5769 25.4512C12.8429 23.4874 12.6254 15.2869 14.0391 13.6681C14.5096 13.1414 15.1739 12.8172 15.8878 12.7658C19.6802 12.3677 31.3975 12.4208 32.7432 12.8985C33.1217 13.0183 33.4675 13.2203 33.7547 13.4891C34.0419 13.758 34.263 14.0868 34.4015 14.451C35.2035 16.4812 35.2307 23.8589 34.2928 25.8095C34.044 26.3173 33.6275 26.7285 33.1102 26.9772C31.6965 27.6672 17.1383 27.6539 15.2625 27.0568ZM21.2842 23.2087L28.0808 19.7587L21.2842 16.2821V23.2087Z" fill="white"/>
</g>
<defs>
<filter id="filter0_d_130_4263" x="0" y="0" width="48" height="48" filterUnits="userSpaceOnUse" color-interpolation-filters="sRGB">
<feFlood flood-opacity="0" result="BackgroundImageFix"/>
<feColorMatrix in="SourceAlpha" type="matrix" values="0 0 0 0 0 0 0 0 0 0 0 0 0 0 0 0 0 0 127 0" result="hardAlpha"/>
<feOffset dy="4"/>
<feGaussianBlur stdDeviation="2"/>
<feComposite in2="hardAlpha" operator="out"/>
<feColorMatrix type="matrix" values="0 0 0 0 0 0 0 0 0 0 0 0 0 0 0 0 0 0 0.25 0"/>
<feBlend mode="normal" in2="BackgroundImageFix" result="effect1_dropShadow_130_4263"/>
<feBlend mode="normal" in="SourceGraphic" in2="effect1_dropShadow_130_4263" result="shape"/>
</filter>
</defs>
</svg>
