<svg width="360" height="481" viewBox="0 0 360 481" fill="none" xmlns="http://www.w3.org/2000/svg">
<path fill-rule="evenodd" clip-rule="evenodd" d="M-99.0556 -76.5191C-98.7901 -76.595 -98.6364 -76.8717 -98.7122 -77.1372C-98.7881 -77.4027 -99.0648 -77.5565 -99.3304 -77.4806C-185.002 -53.0031 -263.217 -19.9208 -334.842 33.5964C-381.903 68.7599 -423.586 109.822 -459.55 156.358C-481.792 185.138 -509.05 227.791 -530.741 263.236C-541.589 280.961 -551.047 296.888 -557.793 308.385C-561.166 314.133 -563.861 318.773 -565.713 321.977C-566.639 323.578 -567.354 324.821 -567.838 325.663C-568.08 326.084 -568.264 326.405 -568.387 326.621L-568.527 326.865L-568.562 326.927L-568.564 326.93L-568.568 326.936L-568.614 327.004C-568.632 327.03 -568.653 327.061 -568.678 327.098C-568.71 327.146 -568.749 327.203 -568.793 327.27C-568.951 327.505 -569.184 327.855 -569.487 328.317C-570.093 329.241 -570.979 330.612 -572.098 332.401C-574.338 335.979 -577.515 341.233 -581.266 347.936C-588.769 361.341 -598.573 380.549 -607.778 403.761C-623.058 442.29 -636.701 491.88 -635.416 544.295C-697.451 547.957 -760.634 556.968 -817.504 577.92C-826.301 581.161 -834.951 585.888 -840.89 593.311C-841.063 593.527 -841.028 593.842 -840.812 594.014C-840.597 594.187 -840.282 594.152 -840.11 593.936C-834.333 586.716 -825.877 582.071 -817.158 578.859C-760.418 557.954 -697.355 548.955 -635.39 545.295C-635.097 555.699 -634.214 566.212 -632.636 576.769C-626.115 620.41 -605.421 646.939 -582.934 663.101C-574.859 668.905 -562.663 673.703 -548.271 677.44C-533.87 681.18 -517.23 683.867 -500.239 685.429C-466.274 688.552 -430.824 687.183 -408.999 680.675C-348.132 662.524 -298.841 637.822 -252.896 608.416C-238.57 619.425 -225.558 632.267 -214.233 647.245C-204.587 660.002 -200.654 672.403 -200.313 684.595C-199.972 696.799 -203.23 708.827 -208.023 720.835C-211.449 729.416 -215.645 737.957 -219.86 746.535L-219.865 746.546C-221.551 749.977 -223.24 753.415 -224.884 756.864C-230.628 768.917 -235.808 781.083 -238.287 793.475C-238.341 793.745 -238.165 794.009 -237.894 794.063C-237.624 794.117 -237.36 793.942 -237.306 793.671C-234.853 781.407 -229.719 769.334 -223.981 757.294C-222.347 753.866 -220.664 750.439 -218.98 747.012C-214.758 738.42 -210.535 729.825 -207.094 721.206C-202.277 709.138 -198.967 696.964 -199.314 684.567C-199.661 672.157 -203.67 659.557 -213.435 646.642C-224.744 631.685 -237.724 618.852 -252.002 607.843C-211.701 581.97 -173.939 552.481 -133.146 520.626L-133.139 520.62C-117.517 508.42 -101.45 495.873 -84.6262 483.05C-77.1987 477.388 -69.8152 471.665 -62.4731 465.885C-0.1297 448.809 61.1738 424.969 120.908 401.686C158.664 386.969 195.185 370.408 230.5 351.855C214.014 378.38 200.363 406.563 191.305 437.647C191.126 438.26 190.946 438.879 190.764 439.502C185.492 457.57 179.017 479.762 178.331 500.761C177.621 522.502 183.116 543.066 202.654 556.457C215.449 565.227 228.581 565.836 243.552 564.972C285.852 562.532 326.937 552.672 365.868 536.017C385.883 527.454 405.128 517.588 423.531 506.442C435.289 514.362 449.758 517.099 464.576 517.07C482.429 517.035 500.861 512.985 515.825 509.07C553.082 499.32 587.389 483.456 621.848 467.522C632.99 462.37 644.146 457.211 655.424 452.249C687.893 437.962 726.592 425.579 762.589 425.579C764.707 425.579 766.159 426.66 767.162 428.446C768.181 430.259 768.715 432.774 768.934 435.518C769.371 440.997 768.534 447.172 768.061 449.89C766.956 456.244 763.108 461.513 758.37 466.334C756.003 468.743 753.427 471.027 750.875 473.274L750.482 473.619C748.069 475.743 745.688 477.839 743.563 479.964C742.925 480.602 741.873 481.585 740.535 482.834L740.53 482.839C735.539 487.499 726.567 495.877 720.169 504.031C718.136 506.623 716.351 509.205 715.031 511.652C713.713 514.093 712.84 516.431 712.665 518.528C712.488 520.644 713.023 522.534 714.535 523.997C716.027 525.442 718.411 526.411 721.809 526.847C739.301 529.089 756.733 523.948 773.27 519.071L774.66 518.661C835.024 500.879 894.718 479.425 953.636 457.446C1046.97 422.629 1137.16 381.607 1227.54 340.5C1254.46 328.256 1281.4 316.004 1308.44 303.906C1308.69 303.793 1308.81 303.497 1308.69 303.245C1308.58 302.993 1308.28 302.88 1308.03 302.993C1280.99 315.092 1254.05 327.344 1227.13 339.586L1227.11 339.598C1136.73 380.703 1046.58 421.706 953.287 456.509C894.373 478.487 834.706 499.93 774.377 517.702L773.066 518.088C756.468 522.983 739.216 528.07 721.936 525.855C718.641 525.432 716.503 524.511 715.231 523.279C713.978 522.066 713.504 520.495 713.661 518.612C713.82 516.71 714.624 514.512 715.911 512.127C717.195 509.748 718.943 507.214 720.956 504.649C727.295 496.57 736.151 488.299 741.159 483.621L741.16 483.62C742.526 482.344 743.606 481.336 744.27 480.672C746.371 478.571 748.728 476.496 751.147 474.367L751.152 474.362L751.536 474.024C754.085 471.779 756.687 469.473 759.083 467.035C763.872 462.163 767.889 456.714 769.046 450.061C769.524 447.316 770.378 441.043 769.931 435.439C769.708 432.642 769.158 429.957 768.034 427.956C766.894 425.927 765.144 424.579 762.589 424.579C726.389 424.579 687.541 437.025 655.021 451.333C643.706 456.312 632.525 461.482 621.369 466.64C586.93 482.565 552.734 498.377 515.572 508.102C500.626 512.013 482.295 516.035 464.574 516.07C450.026 516.099 435.938 513.44 424.475 505.869C457.523 485.742 487.845 461.475 515.021 433.206C541.647 405.509 568.02 371.391 577.129 333.13C577.19 332.875 577.259 332.588 577.335 332.272C578.33 328.146 580.532 319.012 580.913 310.455C581.118 305.853 580.8 301.361 579.447 297.888C578.083 294.387 575.644 291.883 571.644 291.412C545.938 288.388 524.368 300.816 505.061 315.295C501.946 317.632 495.145 323.918 488.652 330.407C485.402 333.656 482.22 336.965 479.606 339.868C477.021 342.738 474.964 345.24 473.956 346.899C466.953 354.906 461.45 362.411 456.391 369.531C455.924 370.189 455.461 370.843 455 371.494C454.575 372.095 454.153 372.693 453.732 373.289C449.667 379.045 445.781 384.547 441.473 389.881L441.445 389.916L441.423 389.954C440.619 391.417 439.851 392.812 439.117 394.146L439.116 394.147C424.795 420.173 423.331 422.833 412.022 449.26L412.001 449.31L411.99 449.363C410.658 456.357 408.899 466.396 408.924 476.085C408.948 485.747 410.746 495.208 416.673 500.907C418.561 502.721 420.55 504.354 422.628 505.819C404.381 516.846 385.307 526.613 365.474 535.097C326.647 551.708 285.676 561.541 243.494 563.974C228.576 564.835 215.729 564.207 203.219 555.632C184.072 542.509 178.627 522.351 179.331 500.794C180.012 479.924 186.455 457.839 191.735 439.742C191.913 439.132 192.09 438.527 192.265 437.927C201.458 406.378 215.401 377.818 232.255 350.93C291.269 319.78 346.908 283.047 399.313 240.039C424.715 219.192 448.411 196.523 469.146 170.983C474.262 164.682 478.128 159.624 477.816 151.199C477.745 149.278 476.895 147.938 475.445 147.136C474.038 146.358 472.114 146.115 469.911 146.219C465.495 146.427 459.676 148.051 453.845 150.128C444.186 153.57 434.319 158.325 430.529 160.152C429.743 160.531 429.219 160.783 429.011 160.873C373.88 184.574 328.912 225.809 290.599 271.359C269.206 296.793 248.859 322.595 231.551 350.171C195.8 369.03 158.808 385.84 120.544 400.754C61.5305 423.756 1.04053 447.279 -60.4517 464.292C7.73273 410.463 72.3539 351.775 135.462 292.273C136.821 290.992 138.18 289.71 139.541 288.428L139.542 288.427C175.038 254.974 211.221 220.874 241.452 182.388C247.536 174.643 256.867 161.654 263.622 147.791C267 140.86 269.741 133.694 271.107 126.845C272.472 119.999 272.468 113.434 270.313 107.732C267.4 100.019 259.811 93.1351 251.392 87.3957C242.955 81.6436 233.591 76.9808 227.016 73.7457C182.816 51.9965 123.246 53.702 80.9218 78.8215C41.2902 102.343 4.53467 133.506 -27.8401 166.036C-61.4169 199.774 -93.0959 235.668 -123.18 272.531L-124.363 273.981C-141.922 295.489 -160.202 317.882 -170.716 343.979C-176.893 359.313 -184.959 385.605 -187.253 411.366C-189.544 437.083 -186.101 462.487 -169.003 475.785C-160.698 482.245 -147.628 483.021 -134.617 481.757C-123.507 480.678 -112.315 478.096 -103.949 476.166L-103.949 476.165C-102.496 475.83 -101.128 475.515 -99.8615 475.23C-88.1905 472.609 -76.5518 469.703 -64.9489 466.56C-71.6746 471.841 -78.4351 477.073 -85.2324 482.254C-102.076 495.093 -118.156 507.65 -133.786 519.855C-174.677 551.787 -212.489 581.314 -252.844 607.196C-286.907 581.194 -328.266 565.467 -371.913 555.998C-434.281 542.468 -501.382 541.702 -558.67 542.026C-583.365 542.165 -608.79 542.747 -634.417 544.237C-635.69 492.019 -622.098 442.583 -606.848 404.13C-597.663 380.967 -587.88 361.8 -580.394 348.424C-576.651 341.736 -573.482 336.497 -571.251 332.931C-570.135 331.148 -569.253 329.784 -568.651 328.865C-568.35 328.406 -568.118 328.059 -567.962 327.826C-567.885 327.71 -567.826 327.623 -567.786 327.564L-567.742 327.499L-567.731 327.483L-567.728 327.479C-567.728 327.478 -567.727 327.478 -568.14 327.195L-567.727 327.478L-567.716 327.461L-567.706 327.443L-567.753 327.416C-567.705 327.443 -567.705 327.443 -567.705 327.442L-567.703 327.438L-567.694 327.423L-567.659 327.362L-567.52 327.118L-567.341 326.806C-567.239 326.628 -567.115 326.412 -566.971 326.161C-566.487 325.32 -565.773 324.078 -564.847 322.477C-562.996 319.275 -560.302 314.637 -556.93 308.891C-550.186 297.398 -540.732 281.477 -529.889 263.758C-508.199 228.315 -480.965 185.703 -458.759 156.97C-422.85 110.505 -381.232 69.5065 -334.243 34.3975C-262.745 -19.0252 -184.651 -52.0632 -99.0556 -76.5191ZM-634.391 545.237C-634.1 555.612 -633.22 566.095 -631.647 576.622C-625.168 619.981 -604.63 646.276 -582.35 662.289C-574.424 667.986 -562.368 672.746 -548.02 676.472C-533.682 680.195 -517.098 682.875 -500.148 684.434C-466.231 687.552 -430.931 686.171 -409.285 679.716C-348.653 661.636 -299.536 637.051 -253.741 607.77C-287.595 582.017 -328.688 566.399 -372.125 556.976C-434.374 543.471 -501.375 542.702 -558.664 543.026C-583.363 543.165 -608.78 543.748 -634.391 545.237ZM514.3 432.513C487.077 460.83 456.691 485.123 423.563 505.252C421.394 503.751 419.324 502.068 417.367 500.186C411.751 494.787 409.948 485.694 409.924 476.082C409.899 466.522 411.633 456.591 412.963 449.604C424.233 423.268 425.69 420.621 439.984 394.646L441.232 392.377L442.278 390.475C446.597 385.125 450.496 379.604 454.552 373.861L454.554 373.858C455.429 372.619 456.311 371.37 457.207 370.11C462.266 362.989 467.755 355.506 474.738 347.525L474.767 347.491L474.79 347.453C475.734 345.886 477.741 343.432 480.349 340.537C482.948 337.651 486.117 334.356 489.359 331.114C495.853 324.623 502.609 318.385 505.661 316.095C524.932 301.642 546.228 289.429 571.527 292.405C575.071 292.822 577.249 295.002 578.516 298.251C579.793 301.53 580.117 305.856 579.914 310.41C579.537 318.866 577.357 327.912 576.362 332.043C576.317 332.228 576.275 332.403 576.236 332.567L576.156 332.898C567.111 370.891 540.894 404.85 514.3 432.513ZM398.679 239.266C346.782 281.857 291.71 318.288 233.324 349.233C250.391 322.272 270.36 296.974 291.365 272.002C329.628 226.511 374.477 185.406 429.406 161.791C429.639 161.691 430.201 161.421 431.034 161.02L431.04 161.017C434.913 159.151 444.614 154.479 454.181 151.07C459.998 148.998 465.699 147.419 469.958 147.217C472.093 147.117 473.795 147.366 474.961 148.011C476.086 148.633 476.758 149.645 476.817 151.236C477.114 159.253 473.488 164.049 468.37 170.353C447.687 195.828 424.042 218.45 398.679 239.266ZM134.776 291.545C71.1003 351.582 5.90228 410.774 -62.9327 464.974C-75.2765 468.353 -87.6604 471.465 -100.081 474.254C-101.356 474.541 -102.729 474.858 -104.186 475.194C-112.555 477.124 -123.674 479.69 -134.714 480.762C-147.706 482.024 -160.417 481.197 -168.389 474.996C-185.044 462.042 -188.544 437.136 -186.257 411.454C-183.974 385.817 -175.94 359.623 -169.788 344.352C-159.332 318.398 -141.136 296.109 -123.548 274.564L-122.405 273.164C-92.3372 236.32 -60.6801 200.452 -27.1314 166.742C5.20587 134.249 41.8954 103.146 81.4321 79.6814C123.458 54.7392 182.669 53.0387 226.575 74.643C233.152 77.8792 242.457 82.5144 250.829 88.222C259.22 93.9424 266.58 100.679 269.378 108.085C271.443 113.552 271.469 119.911 270.126 126.65C268.783 133.386 266.078 140.467 262.723 147.353C256.012 161.125 246.729 174.051 240.666 181.77C210.482 220.195 174.349 254.25 138.838 287.716L138.837 287.718C137.482 288.994 136.129 290.27 134.776 291.545Z" fill="white" fill-opacity="0.4"/>
</svg>
