<svg width="360" height="737" viewBox="0 0 360 737" fill="none" xmlns="http://www.w3.org/2000/svg">
<path d="M-1188 714.581C-1186.91 706.315 -1183.39 698.704 -1180.64 690.883C-1171.22 664.095 -1163.04 637.071 -1151.91 610.867C-1093.8 473.998 -996.439 336.684 -865.124 260.962C-850.481 252.518 -839.933 248.019 -822.308 246.56C-808.208 245.393 -796.927 258.376 -794.611 267.065C-787.94 314.077 -788.638 335.803 -787.94 374.623C-787.057 423.757 -787.285 471.85 -802.375 519.149C-822.454 582.084 -851.371 652.481 -906.073 693.37C-917.108 701.619 -994.987 757.773 -1005.65 726.722C-1010.33 713.077 -1007.09 694.914 -1003.29 681.521C-991.546 640.132 -969.336 601.257 -947.463 564.496C-881.633 453.859 -795.719 355.068 -697.794 271.494C-629.44 213.157 -550.473 154.344 -463.591 126.529C-440.425 119.113 -410.866 109.533 -385.965 112.486C-357.802 115.826 -347.785 142.802 -343.985 167.488C-329.604 260.928 -359.784 355.404 -395.54 440.595C-419.153 496.857 -441.076 541.252 -474.933 591.558C-489.407 613.064 -521.349 662.261 -554.915 665.137C-585.98 667.8 -582.59 603.407 -582.018 588.632C-579.284 518.034 -553.58 448.884 -518.975 387.788C-481.124 320.962 -431.379 261.578 -378.158 206.399C-325.335 151.631 -270.48 102.066 -200.812 69.6257C-128.551 35.9778 -42.7969 13.0041 37.3678 9.35779C83.4118 7.26345 126.713 15.263 147.988 59.5323C175.504 116.786 158.117 186.026 131.491 240.19C97.2123 309.921 55.7702 379.838 5.99344 439.864C-11.0563 460.425 -31.1597 479.101 -50.127 497.938C-58.4645 506.218 -69.2447 516.866 -81.2067 519.734C-103.835 525.158 -103.999 463.321 -102.859 452.005C-94.9446 373.403 -53.0499 293.912 -4.4648 232.73C11.297 212.881 29.5113 197.069 48.415 180.361C76.3697 155.653 102.976 129.119 133.553 107.513C204.058 57.6918 287.56 19.7934 373.353 6.28588C407.201 0.956773 472.051 -10.0445 487.067 33.2017C499.278 68.3706 496.563 120.693 485.299 155.786C451.241 261.897 392.299 349.793 311.636 427.138C274.495 462.75 232.921 498.039 185.696 519.587C177.863 523.162 152.344 541.222 141.802 535.24C133.731 530.66 147.977 509.014 151.523 505.691C178.996 479.952 225.433 472.353 261.113 467.072C525.747 427.909 795.283 398.613 1063 398.613" stroke="white" stroke-opacity="0.4" stroke-linecap="round"/>
</svg>
