<svg width="360" height="428" viewBox="0 0 360 428" fill="none" xmlns="http://www.w3.org/2000/svg">
<path d="M-836 427.311C-834.002 416.654 -827.474 406.236 -821.821 397.272C-805.145 370.829 -783.431 347.874 -760.797 326.48C-735.601 302.665 -708.619 280.031 -680.237 260.1C-644.341 234.892 -604.758 215.325 -566.908 193.299C-523.203 167.866 -480.265 141.058 -434.672 119.042C-386.252 95.66 -335.056 78.0298 -284.581 59.6984C-208.915 32.2177 -132.913 3.18221 -51.5151 2.03576C-11.2311 1.46838 34.6927 -2.85569 73.158 11.6987C99.5218 21.6742 132.623 41.3682 136.387 72.3022C139.332 96.5031 124.926 119.711 111.81 138.683C90.6952 169.223 64.2972 195.889 35.9766 219.767C10.8969 240.913 -17.1936 258.705 -45.5283 275.119C-70.8877 289.81 -96.5265 305.69 -123.042 318.182C-140.637 326.472 -159.134 332.28 -178.079 336.563C-190.27 339.319 -214.296 347.117 -226.184 339.609C-233.01 335.297 -232.891 323.015 -231.225 316.397C-223.95 287.493 -205.592 263.894 -187.952 240.564C-167.748 213.843 -147.443 191.372 -119.996 171.768C-88.1658 149.032 -54.4755 128.452 -19.4803 110.954C35.9275 83.2502 93.3717 60.1149 153.192 43.8385C199.451 31.2522 245.78 28.696 293.515 31.5498C312.568 32.6888 345.076 32.0279 360.526 45.8342C369.807 54.1282 367.828 73.0616 365.567 83.5407C360.013 109.293 340.172 128.859 322.924 147.505C302.492 169.594 282.052 194.383 258.645 213.465C235.751 232.129 208.083 244.725 182.391 258.944C157.99 272.45 133.765 286.047 110.129 300.852C63.8185 329.862 10.0599 347.617 -41.327 365.657C-57.6204 371.377 -66.5347 377.599 -66.5347 357.044C-66.5347 330.399 -38.1559 312.828 -19.4803 297.071C80.2472 212.926 204.924 170.657 328.806 134.691C355.498 126.942 382.526 118.446 409.996 113.895C439.282 109.043 468.966 109.694 498.538 109.694C528.145 109.694 556.515 112.769 582.459 128.599C597.2 137.594 603.607 149.144 604.515 166.411C606.274 199.822 568.655 224.522 548.743 246.866C515.033 284.693 467.822 321.438 414.512 321.438C406.508 321.438 401.097 309.906 399.598 303.268C394.081 278.835 418.708 257.195 434.468 242.874C473.97 206.983 517.466 177.554 567.859 158.639C599.089 146.916 632.523 140.559 665.014 133.431C719.112 121.562 773.758 112.098 828.339 102.762C910.807 88.6551 993.666 77.7475 1076.42 65.5802C1108.14 60.9166 1139.25 53.5311 1170.85 48.565C1175.19 47.8834 1193.85 44.1482 1196.37 49.1952" stroke="white" stroke-opacity="0.4" stroke-linecap="round"/>
</svg>
