<svg width="360" height="436" viewBox="0 0 360 436" fill="none" xmlns="http://www.w3.org/2000/svg">
<path d="M-652 435C-647.542 422.354 -645.406 409.096 -642.131 396.107C-633.849 363.264 -625.876 329.939 -611.712 299.009C-588.44 248.192 -526.379 235.563 -475.975 233.782C-441.406 232.561 -407.534 236.267 -373.903 244.181C-346.732 250.574 -320.461 258.098 -297.517 274.566C-278.743 288.041 -261.171 305.307 -245.602 322.372C-230.764 338.636 -216.274 357.392 -208.018 378.011C-200.478 396.838 -195.591 420.185 -219.306 427.978C-244.832 436.365 -274.592 423.114 -286.431 399.348C-294.53 383.091 -298.272 364.618 -303.06 347.22C-308.372 327.921 -314.403 308.802 -318.337 289.151C-328.199 239.894 -322.698 188.19 -303.06 141.884C-292.312 116.539 -272.786 78.9438 -240.6 77.8722C-223.167 77.2917 -203.397 85.3497 -188.549 93.6725C-164.721 107.029 -154.183 128.545 -145.557 153.43C-127.683 204.995 -115.514 260.752 -112.299 315.35C-110.979 337.773 -109.654 383.133 -138.459 389.22C-158.47 393.448 -175.924 374.439 -186.048 359.847C-214.868 318.311 -232.751 266.555 -234.381 216.091C-235.756 173.506 -237.21 126.147 -213.561 88.7433C-202.981 72.0103 -188.795 57.3447 -175.165 43.0979C-156.148 23.2202 -134.498 10.3318 -107.567 4.00227C-81.8992 -2.03055 -57.5752 1.37905 -33.2096 11.0922C-0.292655 24.2141 30.6412 42.9295 60.5486 61.7342C121.931 100.329 186.154 137.991 220.147 204.882C230.41 225.078 241.112 249.497 240.156 272.743C239.914 278.617 235.346 284.908 231.301 288.948C220.065 300.172 195.527 298.874 180.67 298.874C135.423 298.874 99.6593 261.128 76.7045 226.085C54.6677 192.443 43.6864 149.286 59.2642 110.283C67.4363 89.8227 81.9868 65.2049 100.567 52.2135C114.577 42.4172 131.956 39.3244 148.696 38.9115C176.993 38.2136 206.154 38.0103 233.464 46.339C270.201 57.5427 304.701 76.3106 333.035 102.248C369.179 135.334 403.364 176.776 424.833 221.223C438.342 249.19 446.915 279.279 431.458 308.395C427.808 315.27 423.185 321.641 416.586 325.951C410.425 329.975 400.528 321.819 396.78 317.51C388.759 308.289 388.226 294.325 385.086 283.074C380.504 266.662 373.391 251.068 368.862 234.592C363.591 215.418 361.24 190.705 383.463 181.249C392.664 177.335 403.49 178.257 413.071 179.899C443.409 185.097 473.5 196.777 502.098 207.853C548.49 225.822 592.946 248.564 636.685 272.135C688.049 299.816 738.971 328.622 789.253 358.227C809.958 370.417 831.441 384.153 848.672 401.104C852.92 405.283 857.014 409.647 858 415.553" stroke="white" stroke-opacity="0.4" stroke-linecap="round"/>
</svg>
