<svg width="360" height="614" viewBox="0 0 360 614" fill="none" xmlns="http://www.w3.org/2000/svg">
<path d="M-806 563.073C-800.432 545.811 -797.586 527.916 -790.449 511.154C-771.201 465.943 -744.91 423.264 -709.184 389.257C-651.065 333.933 -584.004 284.501 -519.065 237.637C-421.105 166.945 -324.375 108.501 -213 62.3594C-122 24.6594 -123 25.3594 -46 4.85945C-10 -0.155225 50.3193 -8.53141 57.063 41.3727C63.8068 91.2768 41.2874 141.672 14.1733 181.956C-37.4095 258.593 -107.477 325.165 -177.702 384.616C-201.599 404.847 -246 445.359 -274 434.359C-287.773 427.359 -282.448 401.704 -280 391.859C-268.136 344.152 -214.717 302.867 -180.085 272.25C-120.716 219.765 -45.8643 184.361 30.7272 165.527C80.3472 153.326 130.634 138.057 182.221 138.69C203.239 138.948 206.665 155.299 209.811 173.303C220.553 234.77 186.761 275.36 146.605 321.034C128.295 341.86 116.289 355.088 95.5 366.86C92.1527 368.755 71 384.115 65.8417 369.191C65.8417 339.942 108.462 305.774 127 289.36C187.656 235.652 254.078 185.124 324.685 144.96C348.186 131.592 387.551 105.089 417.362 112.103C438.498 117.076 434.537 161.558 432.286 175.936C429.488 193.811 421.91 211.189 414.98 227.73C399.972 263.549 382.736 297.987 359.549 329.311C332.814 365.428 301.76 398.366 264.991 424.371C259.277 428.412 240.908 443.267 232.385 444.687C230.07 445.073 232.466 439.973 232.886 437.664C236.78 416.248 254.201 398.364 269.255 384.115C305.583 349.73 348.266 320.049 391.528 295.075C421.823 277.586 456.849 260.393 492.231 257.076C537.622 252.82 560.064 287.304 558.949 329.06C557.751 373.943 540.818 414.794 513.049 449.704C505.43 459.282 488.45 476.568 477.684 484.818C475.12 486.783 467.929 489.796 468.153 486.574C468.778 477.571 478.71 466.972 484.456 461.367C507.705 438.685 541.276 427.087 571.49 417.474C589.175 411.846 650.231 387.999 655.012 424.12C657.209 440.718 648.399 459.117 642.22 473.155C632.365 495.547 614.896 528.152 603.845 549.404C597.738 561.148 591.529 572.841 585.536 584.644C581.997 591.612 578.33 598.529 575.252 605.712C574.302 607.93 571.114 613.117 573.496 612.735C579.294 611.805 583.558 606.679 588.545 603.58C600.781 595.978 612.746 587.931 625.165 580.631C686.927 544.324 746.88 512.033 811.271 479.551C977.663 395.615 1147.95 320.469 1320.43 250.053C1334.16 244.446 1348.05 239.209 1361.69 233.374C1365.45 231.763 1370.39 231.174 1372.6 227.73C1375.91 222.584 1360.4 228.679 1354.29 228.984" stroke="white" stroke-opacity="0.4" stroke-linecap="round"/>
</svg>
