<svg width="360" height="715" viewBox="0 0 360 715" fill="none" xmlns="http://www.w3.org/2000/svg">
<path d="M-605.411 520.268C-626.278 536.671 -661.647 483.127 -667.531 470.041C-678.929 444.687 -687.946 413.286 -682.237 385.955C-672.105 337.46 -639.825 289.973 -613.905 247.607C-584.285 199.196 -553.191 150.521 -516.161 106.12C-482.142 65.3282 -439.404 27.2317 -388.625 2.97513C-361.961 -9.76249 -319.678 -22.5062 -289.234 -12.2723C-255.364 -0.886709 -230.228 38.3077 -214.183 64.4134C-182.804 115.468 -167.398 168.667 -166.135 226.306C-163.863 329.986 -177.293 440.154 -242.327 529.909C-262.08 557.171 -303.672 580.079 -331.703 546.839C-371.722 499.383 -326.882 433.439 -300.01 390.104C-272.731 346.113 -240.98 306.075 -204.294 267.788C-155.32 216.676 -104.636 164.065 -44.0507 123.385C7.66645 88.6597 64.9601 57.4163 124.307 33.9185C145.137 25.6707 185.495 9.3451 209.246 19.1195C225.425 25.7775 237.953 45.1543 245.504 58.5835C261.97 87.8689 267.963 117.798 269.845 150.292C275.543 248.699 259.358 348.746 215.838 439.994C195.322 483.01 163.64 537.883 115.686 561.974C104.747 567.469 85.239 574.236 72.2021 569.149C58.5767 563.833 47.5895 544.826 44.5652 532.712C36.3624 499.855 49.1086 456.289 63.5814 426.316C119.598 310.308 235.193 218.163 349.966 148.499C437.618 95.2965 621.34 -6.92504 680.342 127.87C702.98 179.588 697.712 238.457 676.159 289.65C645.886 361.551 578.797 419.932 518.07 472.731C496.066 491.863 473.267 511.343 444.794 522.734C414.935 534.68 381.722 541.026 349.206 544.036C318.028 546.921 339.818 467.377 344.388 457.932C361.88 421.786 392.91 390.294 421.214 360.618C462.557 317.269 506.066 275.574 554.835 238.638C668.543 152.521 808.239 78.2388 961.403 75.0642C1031.98 73.6013 1111.88 81.0798 1147 142.557C1165.29 174.559 1164.62 206.09 1164.88 241.665C1165.07 268.477 1165.96 295.984 1157.52 322.051C1152.35 338.049 1144.63 354.24 1137.11 369.475C1127.84 388.266 1114.41 402.313 1100.48 418.356C1084.24 437.045 1068.69 455.834 1051.29 473.74C1011.32 514.853 966.769 554.041 916.398 585.294C851.895 625.313 772.885 650.112 699.105 673.191C669.142 682.563 637.232 683.955 607.573 692.698C596.021 696.104 584.507 695.147 573.344 697.968C566.37 699.73 557.852 705.928 550.271 705.928C530.578 705.928 513.691 714 494.49 714" stroke="white" stroke-opacity="0.4" stroke-linecap="round"/>
</svg>
