<svg width="360" height="609" viewBox="0 0 360 609" fill="none" xmlns="http://www.w3.org/2000/svg">
<path d="M-836 315.354C-812.743 346.567 -794.755 380.896 -770.67 411.794C-755.496 431.26 -740.454 450.819 -721.31 466.65C-691.422 491.365 -655.353 509.487 -619.271 523.166C-538.473 553.794 -442.185 570.247 -359.403 536.854C-311.497 517.529 -300.89 479.649 -297.806 432.326C-294.649 383.893 -295.647 334.192 -304.028 286.319C-314.305 227.611 -345.348 130.979 -418.718 130.979C-435.167 130.979 -452.167 135.346 -455.635 153.377C-460.343 177.863 -451.243 202.3 -441.013 224.1C-417.513 274.178 -385.503 321.434 -348.825 362.744C-309.161 407.418 -261.925 449.373 -204.892 469.865C-174.594 480.751 -136.657 482.763 -108.038 465.509C-66.6272 440.543 -40.7031 385.9 -38.5599 338.997C-35.6143 274.534 -55.6875 209.948 -83.7724 152.755C-110.398 98.5332 -146.797 47.9923 -198.774 15.2513C-227.805 -3.03598 -293.627 -11.0678 -296.354 37.339C-300.992 119.668 -250.217 204.766 -203.026 268.171C-148.959 340.814 -67.0915 426.434 28.8439 436.889C63.6185 440.678 99.7063 431.769 127.357 409.927C161.007 383.346 176.263 338.465 178.584 296.896C182.407 228.443 154.786 156.538 125.283 95.7211C112.4 69.1639 81.3553 36.3136 48.0281 46.5681C40.1993 48.977 32.0347 55.8977 25.5256 60.6711C16.9432 66.9648 15.2117 76.9587 13.704 87.0105C8.7621 119.956 25.4445 154.474 39.4212 183.035C55.5174 215.927 68.2129 251.836 88.5742 282.378C135.482 352.739 202.365 413.503 281.972 444.044C310.997 455.179 344.639 460.436 375.404 454.103C394.46 450.179 396.878 437.146 397.595 419.571C400.337 352.403 379.34 291.066 340.354 236.751C334.817 229.037 322.341 210.94 310.074 212.693C295.191 214.819 291.615 262.002 291.615 272.734C291.615 290.506 297.648 304.433 304.682 320.435C313.911 341.432 323.869 362.488 335.376 382.343C353.434 413.501 376.308 443.702 401.639 469.346C431.846 499.926 462.565 534.144 504.404 548.572C525.921 555.991 548.174 565.58 570.149 571.074C584.562 574.677 600.229 574.166 614.325 578.541C629.83 583.353 645.173 589.602 661.196 592.229C783.317 612.249 910.977 615.235 1032.33 587.459C1074.84 577.728 1119.64 564.265 1158.53 543.905C1171.69 537.021 1187.34 528.638 1196.69 516.944" stroke="white" stroke-opacity="0.4" stroke-linecap="round"/>
</svg>
