<svg width="360" height="621" viewBox="0 0 360 621" fill="none" xmlns="http://www.w3.org/2000/svg">
<path d="M-532 334.865C-532 318.378 -525.487 305.128 -516.798 291.306C-494.924 256.508 -469.329 223.325 -440.881 193.7C-396.823 147.821 -344.472 112.757 -284.986 89.952C-258.76 79.8977 -221.696 64.4991 -198.871 87.7788C-178.387 108.67 -154.958 135.684 -146.938 164.22C-131.314 219.808 -144.195 285.347 -165.067 337.699C-179.005 372.659 -198.065 405.526 -215.49 438.802C-227.496 461.73 -238.351 488.288 -256.659 507.211C-272.909 524.007 -304.388 536.626 -328.232 529.699C-348.86 523.706 -346.749 483.855 -342.585 468.471C-326.412 408.716 -283.379 355.327 -247.027 306.991C-204.803 250.847 -153.218 200.111 -89.622 168.849C-65.0546 156.773 -39.2522 149.801 -12.2885 145.511C3.66725 142.972 20.3484 140.833 35.5847 147.59C66.4131 161.261 73.6552 190.319 74.582 221.385C75.5956 255.364 67.5528 286.762 57.2079 318.991C43.2452 362.49 27.3758 405.76 4.99122 445.699C-10.6957 473.688 -29.2554 499.894 -47.4143 526.297C-62.4017 548.09 -76.809 571.641 -97.2703 588.848C-116.003 604.603 -139.856 618.925 -160.535 598.959C-194.854 565.821 -179.847 502.291 -166.578 463.557C-153.925 426.622 -132.91 393.48 -111.056 361.416C-81.5469 318.118 -47.0235 279.49 -8.51148 243.967C55.2672 185.139 131.273 135.256 215.274 110.928C242.889 102.931 271.49 99.4646 300.162 98.6449C320.523 98.0628 342.866 97.9762 362.01 106.015C376.582 112.134 385.793 125.115 394.869 137.385C406.197 152.699 416.182 169.059 422.819 186.991C435.365 220.887 432.547 259.072 430.751 294.518C427.762 353.475 411.113 408.44 382.783 460.25C356.519 508.282 329.608 563.899 284.204 596.785C252.891 619.465 214.855 635.762 189.024 595.085C165.833 558.565 172.531 500.977 181.754 461.573C198.215 391.241 237.048 322.434 280.427 265.322C326.026 205.287 386.45 155.299 450.391 115.936C511.477 78.3303 581.285 47.5674 652.837 37.6057C683.219 33.3756 730.172 30.0362 747.45 62.267C766.824 98.4094 764.457 152.733 759.725 191.81C746.944 297.361 681.676 386.835 603.169 455.054C578.41 476.568 541.856 506.942 506.479 505.132C462.49 502.881 449.309 448.248 443.215 413.29C432.539 352.056 440.956 287.803 457.85 228.566C489.983 115.903 571.333 20.2791 650.004 -63.3075C709.29 -126.298 778.606 -194.868 858.21 -232.535C864.257 -235.397 870.509 -238.376 877 -240" stroke="white" stroke-opacity="0.5" stroke-linecap="round"/>
</svg>
