<svg width="360" height="731" viewBox="0 0 360 731" fill="none" xmlns="http://www.w3.org/2000/svg">
<path d="M-899 613.559C-897.11 571.99 -895.374 525.805 -883.376 485.813C-875.246 458.713 -866.117 430.968 -847.687 408.921C-815.416 370.316 -765.91 343.543 -716.265 335.704C-649.445 325.154 -586.555 337.036 -534.449 380.124C-461.567 440.393 -401.018 507.599 -349.11 586.601C-330.814 614.448 -313.179 639.282 -306.222 671.458C-303.429 684.376 -298.016 712.453 -306.222 724.763C-317.268 741.331 -362.369 710.072 -373.312 703.012C-417.381 674.58 -448.352 628.798 -468.432 581.24C-511.466 479.318 -527.042 361.016 -467.053 262.947C-449.045 233.508 -426.559 205.775 -404.559 179.162C-390.749 162.457 -378.408 145.127 -356.156 140.562C-343.985 138.066 -333.213 148.782 -324.603 155.88C-303.096 173.608 -281.702 194.83 -264.559 216.842C-204.695 293.71 -175.376 390.744 -149.833 483.209C-137.373 528.316 -123.553 572.797 -120.271 619.686C-118.61 643.415 -107.993 700.193 -140.796 709.445C-169.891 717.652 -208.416 676.484 -224.581 657.673C-270.73 603.972 -292.794 535.692 -316.425 471.035C-330.294 433.087 -338.013 391.408 -343.137 351.021C-347.717 314.915 -350.625 278.07 -350.336 241.656C-349.891 185.642 -334.034 131.019 -300.402 85.8797C-261.066 33.0878 -188.624 -20.0508 -119.658 9.44662C-20.9141 51.6804 51.0936 140.022 101.983 231.087C120.362 263.976 133.268 302.677 141.961 339.38C143.889 347.522 146.844 371.058 141.348 379.052C136.715 385.791 119.531 391.785 111.633 392.838C93.4467 395.262 78.5711 383.518 66.5999 371.547C15.5823 320.529 21.8735 248.287 21.8735 181C21.8735 145.636 17.8109 102.164 52.3549 81.4377C91.5119 57.9435 144.139 61.9835 186.075 73.1664C236.323 86.5661 271.265 136.731 301.72 173.954C335.695 215.479 342.058 272.188 361.61 321.306C380.757 369.407 390.228 421.082 424.258 461.918C435.277 475.142 444.756 491.383 462.857 495.004C492.782 500.989 516.746 457.987 527.343 434.347C542.879 399.69 544.704 357.218 551.238 320.081C553.892 304.996 556.325 282.351 574.52 277.499C614.035 266.961 652.083 319.513 665.658 349.796C685.89 394.93 693.888 439.712 702.879 488.264C710.273 528.194 707.911 580.7 723.575 618.035C731.546 637.035 738.28 657.756 753.075 676.535C758.59 683.535 779.575 705.535 807.075 690.535C824.075 676.535 826.075 658.535 826.075 643.035C826.075 575.34 835.966 508.228 835.075 440.535C834.43 391.537 798.116 326.413 773.032 285.535C765.846 273.826 758.575 263.035 742.575 247.035C736.284 240.744 727.693 243.46 727.693 253.91C727.693 293.819 754.463 330.311 773.032 363.735C812.854 435.415 861.956 513.605 937.539 551.984C962.699 564.759 996.372 576.643 1024.54 578.942C1067.03 582.411 1102.21 550.671 1123.03 517.214C1200.2 393.232 1226.28 245.957 1259.81 106.252" stroke="white" stroke-opacity="0.4" stroke-linecap="round"/>
</svg>
